<?xml version="1.0" encoding="UTF-8" standalone="no"?><!DOCTYPE svg PUBLIC "-//W3C//DTD SVG 1.1//EN" "http://www.w3.org/Graphics/SVG/1.1/DTD/svg11.dtd"><svg width="100%" height="100%" viewBox="0 0 653 129" version="1.1" xmlns="http://www.w3.org/2000/svg" xmlns:xlink="http://www.w3.org/1999/xlink" xml:space="preserve" xmlns:serif="http://www.serif.com/" style="fill-rule:evenodd;clip-rule:evenodd;stroke-linecap:round;stroke-linejoin:round;stroke-miterlimit:1.5;"><g><path d="M85.343,57.039c-7.086,22.982 -31.498,35.887 -54.48,28.8c-22.981,-7.086 -35.886,-31.498 -28.8,-54.48c7.087,-22.981 31.499,-35.886 54.48,-28.8c22.982,7.087 35.887,31.499 28.8,54.48Zm-20.82,-6.42c-3.543,11.491 -15.749,17.944 -27.24,14.4c-11.491,-3.543 -17.943,-15.749 -14.4,-27.24c3.544,-11.491 15.749,-17.943 27.24,-14.4c11.491,3.544 17.944,15.749 14.4,27.24Z" style="fill:#2ab9a5;stroke:#fff;stroke-width:0.24px;"/><g><path d="M116.417,1.232l0,12.782c5.441,-9.343 14.271,-14.014 26.488,-14.014c9.753,0 17.71,3.208 23.87,9.625c6.16,6.417 9.24,15.323 9.24,26.719l0,50.204l-21.56,0l0,-47.124c0,-6.673 -1.694,-11.781 -5.082,-15.323c-3.388,-3.542 -8.008,-5.313 -13.86,-5.313c-5.852,-0 -10.498,1.771 -13.937,5.313c-3.439,3.542 -5.159,8.65 -5.159,15.323l0,47.124l-21.714,0l0,-85.316l21.714,0Z" style="fill:#2ab9a5;fill-rule:nonzero;"/><path d="M226.681,87.78c-12.423,0 -22.535,-4.03 -30.338,-12.089c-7.803,-8.059 -11.704,-18.711 -11.704,-31.955c0,-13.244 3.927,-23.844 11.781,-31.801c7.854,-7.957 18.018,-11.935 30.492,-11.935c12.474,-0 22.715,3.876 30.723,11.627c8.008,7.751 12.012,18.095 12.012,31.031c0,2.977 -0.205,5.749 -0.616,8.316l-62.216,0c0.513,5.544 2.567,10.01 6.16,13.398c3.593,3.388 8.162,5.082 13.706,5.082c7.495,0 13.039,-3.08 16.632,-9.24l23.408,0c-2.464,8.111 -7.238,14.733 -14.322,19.866c-7.084,5.133 -15.657,7.7 -25.718,7.7Zm20.482,-50.82c-0.308,-5.647 -2.387,-10.164 -6.237,-13.552c-3.85,-3.388 -8.496,-5.082 -13.937,-5.082c-5.441,0 -9.984,1.694 -13.629,5.082c-3.645,3.388 -5.826,7.905 -6.545,13.552l40.348,-0Z" style="fill:#2ab9a5;fill-rule:nonzero;"/><path d="M338.947,62.216c4.517,-4.517 6.776,-10.677 6.776,-18.48c0,-7.803 -2.233,-13.911 -6.699,-18.326c-4.466,-4.415 -9.728,-6.622 -15.785,-6.622c-6.057,-0 -11.319,2.233 -15.785,6.699c-4.466,4.466 -6.699,10.6 -6.699,18.403c0,7.803 2.233,13.937 6.699,18.403c4.466,4.466 9.728,6.699 15.785,6.699c6.057,0 11.293,-2.259 15.708,-6.776Zm-38.192,-47.74c6.057,-9.651 14.938,-14.476 26.642,-14.476c11.704,-0 21.355,4.081 28.952,12.243c7.597,8.162 11.396,18.685 11.396,31.57c0,12.885 -3.799,23.434 -11.396,31.647c-7.597,8.213 -17.171,12.32 -28.721,12.32c-11.55,0 -20.508,-5.185 -26.873,-15.554l0,54.978l-21.714,0l0,-125.972l21.714,0l0,13.244Z" style="fill:#2ab9a5;fill-rule:nonzero;"/><path d="M431.501,62.37c4.517,-4.517 6.776,-10.677 6.776,-18.48c0,-7.803 -2.259,-13.937 -6.776,-18.403c-4.517,-4.466 -9.805,-6.699 -15.862,-6.699c-6.057,-0 -11.319,2.207 -15.785,6.622c-4.466,4.415 -6.699,10.523 -6.699,18.326c0,7.803 2.259,13.963 6.776,18.48c4.517,4.517 9.779,6.776 15.785,6.776c6.006,0 11.268,-2.207 15.785,-6.622Zm-48.972,13.09c-7.597,-8.316 -11.396,-18.891 -11.396,-31.724c0,-12.833 3.799,-23.331 11.396,-31.493c7.597,-8.162 17.248,-12.243 28.952,-12.243c11.704,-0 20.636,4.825 26.796,14.476l0,-13.244l21.56,0l0,85.316l-21.56,0l0,-14.322c-6.468,10.369 -15.451,15.554 -26.95,15.554c-11.499,0 -21.098,-4.107 -28.798,-12.32Z" style="fill:#2ab9a5;fill-rule:nonzero;"/><path d="M480.627,75.46c-7.597,-8.316 -11.396,-18.891 -11.396,-31.724c0,-12.833 3.799,-23.331 11.396,-31.493c7.597,-8.162 17.248,-12.243 28.952,-12.243c11.704,-0 20.636,4.825 26.796,14.476l0,-13.244l21.56,0l0,85.932c0,12.217 -3.593,22.202 -10.78,29.953c-7.187,7.751 -17.274,11.627 -30.261,11.627c-12.987,-0 -23.305,-2.695 -30.954,-8.085c-7.649,-5.39 -11.986,-13.064 -13.013,-23.023l21.252,0c1.335,3.799 3.901,6.802 7.7,9.009c3.799,2.207 8.573,3.311 14.322,3.311c5.749,0 10.549,-1.899 14.399,-5.698c3.85,-3.799 5.775,-9.497 5.775,-17.094l0,-14.938c-6.468,10.369 -15.451,15.554 -26.95,15.554c-11.499,0 -21.098,-4.107 -28.798,-12.32Zm48.972,-13.09c4.517,-4.517 6.776,-10.677 6.776,-18.48c0,-7.803 -2.259,-13.937 -6.776,-18.403c-4.517,-4.466 -9.805,-6.699 -15.862,-6.699c-6.057,0 -11.319,2.207 -15.785,6.622c-4.466,4.415 -6.699,10.523 -6.699,18.326c0,7.803 2.259,13.963 6.776,18.48c4.517,4.517 9.779,6.776 15.785,6.776c6.006,0 11.268,-2.207 15.785,-6.622Z" style="fill:#2ab9a5;fill-rule:nonzero;"/><path d="M609.371,87.78c-12.423,0 -22.535,-4.03 -30.338,-12.089c-7.803,-8.059 -11.704,-18.711 -11.704,-31.955c0,-13.244 3.927,-23.844 11.781,-31.801c7.854,-7.957 18.018,-11.935 30.492,-11.935c12.474,-0 22.715,3.876 30.723,11.627c8.008,7.751 12.012,18.095 12.012,31.031c0,2.977 -0.205,5.749 -0.616,8.316l-62.216,0c0.513,5.544 2.567,10.01 6.16,13.398c3.593,3.388 8.162,5.082 13.706,5.082c7.495,0 13.039,-3.08 16.632,-9.24l23.408,0c-2.464,8.111 -7.238,14.733 -14.322,19.866c-7.084,5.133 -15.657,7.7 -25.718,7.7Zm20.482,-50.82c-0.308,-5.647 -2.387,-10.164 -6.237,-13.552c-3.85,-3.388 -8.496,-5.082 -13.937,-5.082c-5.441,0 -9.984,1.694 -13.629,5.082c-3.645,3.388 -5.826,7.905 -6.545,13.552l40.348,-0Z" style="fill:#2ab9a5;fill-rule:nonzero;"/></g></g></svg>